<?xml version="1.0" encoding="utf-8"?>
<!-- Generator: Adobe Illustrator 24.1.0, SVG Export Plug-In . SVG Version: 6.00 Build 0)  -->
<svg version="1.1" id="Laag_3" xmlns="http://www.w3.org/2000/svg" xmlns:xlink="http://www.w3.org/1999/xlink" x="0px" y="0px"
	 viewBox="0 0 879 376" style="enable-background:new 0 0 879 376;" xml:space="preserve">
<style type="text/css">
	.st0{fill:#FFFFFF;}
	.st1{clip-path:url(#SVGID_2_);}
	.st2{opacity:0.3;fill:none;stroke:#E5E5E5;stroke-miterlimit:10;enable-background:new    ;}
	.st3{opacity:0.3;fill:none;stroke:#E5E5E5;stroke-width:2.137;stroke-miterlimit:10;enable-background:new    ;}
</style>
<rect y="-0.1" class="st0" width="878.8" height="376.1"/>
<g>
	<g>
		<defs>
			<rect id="SVGID_1_" x="0.2" y="-0.1" width="878.6" height="375.1"/>
		</defs>
		<clipPath id="SVGID_2_">
			<use xlink:href="#SVGID_1_"  style="overflow:visible;"/>
		</clipPath>
		<g class="st1">
			<rect class="st2" width="879" height="376"/>
			<line class="st3" x1="872.1" y1="385" x2="1278.7" y2="-21.6"/>
			<line class="st3" x1="861.4" y1="385" x2="1268" y2="-21.6"/>
			<line class="st3" x1="850.7" y1="385" x2="1257.3" y2="-21.6"/>
			<line class="st3" x1="840.1" y1="385" x2="1246.6" y2="-21.6"/>
			<line class="st3" x1="829.4" y1="385" x2="1235.9" y2="-21.6"/>
			<line class="st3" x1="818.7" y1="385" x2="1225.3" y2="-21.6"/>
			<line class="st3" x1="808" y1="385" x2="1214.6" y2="-21.6"/>
			<line class="st3" x1="797.3" y1="385" x2="1203.9" y2="-21.6"/>
			<line class="st3" x1="786.6" y1="385" x2="1193.2" y2="-21.6"/>
			<line class="st3" x1="776" y1="385" x2="1182.5" y2="-21.6"/>
			<line class="st3" x1="765.3" y1="385" x2="1171.8" y2="-21.6"/>
			<line class="st3" x1="754.6" y1="385" x2="1161.1" y2="-21.6"/>
			<line class="st3" x1="743.9" y1="385" x2="1150.5" y2="-21.6"/>
			<line class="st3" x1="733.2" y1="385" x2="1139.8" y2="-21.6"/>
			<line class="st3" x1="722.5" y1="385" x2="1129.1" y2="-21.6"/>
			<line class="st3" x1="711.8" y1="385" x2="1118.4" y2="-21.6"/>
			<line class="st3" x1="701.2" y1="385" x2="1107.7" y2="-21.6"/>
			<line class="st3" x1="690.5" y1="385" x2="1097" y2="-21.6"/>
			<line class="st3" x1="679.8" y1="385" x2="1086.4" y2="-21.6"/>
			<line class="st3" x1="669.1" y1="385" x2="1075.7" y2="-21.6"/>
			<line class="st3" x1="658.4" y1="385" x2="1065" y2="-21.6"/>
			<line class="st3" x1="647.7" y1="385" x2="1054.3" y2="-21.6"/>
			<line class="st3" x1="637" y1="385" x2="1043.6" y2="-21.6"/>
			<line class="st3" x1="626.4" y1="385" x2="1032.9" y2="-21.6"/>
			<line class="st3" x1="615.7" y1="385" x2="1022.2" y2="-21.6"/>
			<line class="st3" x1="605" y1="385" x2="1011.6" y2="-21.6"/>
			<line class="st3" x1="594.3" y1="385" x2="1000.9" y2="-21.6"/>
			<line class="st3" x1="583.6" y1="385" x2="990.2" y2="-21.6"/>
			<line class="st3" x1="572.9" y1="385" x2="979.5" y2="-21.6"/>
			<line class="st3" x1="562.3" y1="385" x2="968.8" y2="-21.6"/>
			<line class="st3" x1="551.6" y1="385" x2="958.1" y2="-21.6"/>
			<line class="st3" x1="540.9" y1="385" x2="947.4" y2="-21.6"/>
			<line class="st3" x1="530.2" y1="385" x2="936.8" y2="-21.6"/>
			<line class="st3" x1="519.5" y1="385" x2="926.1" y2="-21.6"/>
			<line class="st3" x1="508.8" y1="385" x2="915.4" y2="-21.6"/>
			<line class="st3" x1="498.1" y1="385" x2="904.7" y2="-21.6"/>
			<line class="st3" x1="487.5" y1="385" x2="894" y2="-21.6"/>
			<line class="st3" x1="476.8" y1="385" x2="883.3" y2="-21.6"/>
			<line class="st3" x1="466.1" y1="385" x2="872.7" y2="-21.6"/>
			<line class="st3" x1="455.4" y1="385" x2="862" y2="-21.6"/>
			<line class="st3" x1="444.7" y1="385" x2="851.3" y2="-21.6"/>
			<line class="st3" x1="434" y1="385" x2="840.6" y2="-21.6"/>
			<line class="st3" x1="423.3" y1="385" x2="829.9" y2="-21.6"/>
			<line class="st3" x1="412.7" y1="385" x2="819.2" y2="-21.6"/>
			<line class="st3" x1="402" y1="385" x2="808.5" y2="-21.6"/>
			<line class="st3" x1="391.3" y1="385" x2="797.9" y2="-21.6"/>
			<line class="st3" x1="380.6" y1="385" x2="787.2" y2="-21.6"/>
			<line class="st3" x1="369.9" y1="385" x2="776.5" y2="-21.6"/>
			<line class="st3" x1="359.2" y1="385" x2="765.8" y2="-21.6"/>
			<line class="st3" x1="348.6" y1="385" x2="755.1" y2="-21.6"/>
			<line class="st3" x1="337.9" y1="385" x2="744.4" y2="-21.6"/>
			<line class="st3" x1="327.2" y1="385" x2="733.7" y2="-21.6"/>
			<line class="st3" x1="316.5" y1="385" x2="723.1" y2="-21.6"/>
			<line class="st3" x1="305.8" y1="385" x2="712.4" y2="-21.6"/>
			<line class="st3" x1="295.1" y1="385" x2="701.7" y2="-21.6"/>
			<line class="st3" x1="284.4" y1="385" x2="691" y2="-21.6"/>
			<line class="st3" x1="273.8" y1="385" x2="680.3" y2="-21.6"/>
			<line class="st3" x1="263.1" y1="385" x2="669.6" y2="-21.6"/>
			<line class="st3" x1="252.4" y1="385" x2="659" y2="-21.6"/>
			<line class="st3" x1="241.7" y1="385" x2="648.3" y2="-21.6"/>
			<line class="st3" x1="231" y1="385" x2="637.6" y2="-21.6"/>
			<line class="st3" x1="220.3" y1="385" x2="626.9" y2="-21.6"/>
			<line class="st3" x1="209.6" y1="385" x2="616.2" y2="-21.6"/>
			<line class="st3" x1="199" y1="385" x2="605.5" y2="-21.6"/>
			<line class="st3" x1="188.3" y1="385" x2="594.8" y2="-21.6"/>
			<line class="st3" x1="177.6" y1="385" x2="584.2" y2="-21.6"/>
			<line class="st3" x1="166.9" y1="385" x2="573.5" y2="-21.6"/>
			<line class="st3" x1="156.2" y1="385" x2="562.8" y2="-21.6"/>
			<line class="st3" x1="145.5" y1="385" x2="552.1" y2="-21.6"/>
			<line class="st3" x1="134.8" y1="385" x2="541.4" y2="-21.6"/>
			<line class="st3" x1="124.2" y1="385" x2="530.7" y2="-21.6"/>
			<line class="st3" x1="113.5" y1="385" x2="520" y2="-21.6"/>
			<line class="st3" x1="102.8" y1="385" x2="509.4" y2="-21.6"/>
			<line class="st3" x1="92.1" y1="385" x2="498.7" y2="-21.6"/>
			<line class="st3" x1="81.4" y1="385" x2="488" y2="-21.6"/>
			<line class="st3" x1="70.7" y1="385" x2="477.3" y2="-21.6"/>
			<line class="st3" x1="60.1" y1="385" x2="466.6" y2="-21.6"/>
			<line class="st3" x1="49.4" y1="385" x2="455.9" y2="-21.6"/>
			<line class="st3" x1="38.7" y1="385" x2="445.2" y2="-21.6"/>
			<line class="st3" x1="28" y1="385" x2="434.6" y2="-21.6"/>
			<line class="st3" x1="17.3" y1="385" x2="423.9" y2="-21.6"/>
			<line class="st3" x1="6.6" y1="385" x2="413.2" y2="-21.6"/>
			<line class="st3" x1="-4.1" y1="385" x2="402.5" y2="-21.6"/>
			<line class="st3" x1="-14.7" y1="385" x2="391.8" y2="-21.6"/>
			<line class="st3" x1="-25.4" y1="385" x2="381.1" y2="-21.6"/>
			<line class="st3" x1="-36.1" y1="385" x2="370.5" y2="-21.6"/>
			<line class="st3" x1="-46.8" y1="385" x2="359.8" y2="-21.6"/>
			<line class="st3" x1="-57.5" y1="385" x2="349.1" y2="-21.6"/>
			<line class="st3" x1="-68.2" y1="385" x2="338.4" y2="-21.6"/>
			<line class="st3" x1="-78.9" y1="385" x2="327.7" y2="-21.6"/>
			<line class="st3" x1="-89.5" y1="385" x2="317" y2="-21.6"/>
			<line class="st3" x1="-100.2" y1="385" x2="306.3" y2="-21.6"/>
			<line class="st3" x1="-110.9" y1="385" x2="295.7" y2="-21.6"/>
			<line class="st3" x1="-121.6" y1="385" x2="285" y2="-21.6"/>
			<line class="st3" x1="-132.3" y1="385" x2="274.3" y2="-21.6"/>
			<line class="st3" x1="-143" y1="385" x2="263.6" y2="-21.6"/>
			<line class="st3" x1="-153.6" y1="385" x2="252.9" y2="-21.6"/>
			<line class="st3" x1="-164.3" y1="385" x2="242.2" y2="-21.6"/>
			<line class="st3" x1="-175" y1="385" x2="231.5" y2="-21.6"/>
			<line class="st3" x1="-185.7" y1="385" x2="220.9" y2="-21.6"/>
			<line class="st3" x1="-196.4" y1="385" x2="210.2" y2="-21.6"/>
			<line class="st3" x1="-207.1" y1="385" x2="199.5" y2="-21.6"/>
			<line class="st3" x1="-217.8" y1="385" x2="188.8" y2="-21.6"/>
			<line class="st3" x1="-228.4" y1="385" x2="178.1" y2="-21.6"/>
			<line class="st3" x1="-239.1" y1="385" x2="167.4" y2="-21.6"/>
			<line class="st3" x1="-249.8" y1="385" x2="156.8" y2="-21.6"/>
			<line class="st3" x1="-260.5" y1="385" x2="146.1" y2="-21.6"/>
			<line class="st3" x1="-271.2" y1="385" x2="135.4" y2="-21.6"/>
			<line class="st3" x1="-281.9" y1="385" x2="124.7" y2="-21.6"/>
			<line class="st3" x1="-292.6" y1="385" x2="114" y2="-21.6"/>
			<line class="st3" x1="-303.2" y1="385" x2="103.3" y2="-21.6"/>
			<line class="st3" x1="-313.9" y1="385" x2="92.6" y2="-21.6"/>
			<line class="st3" x1="-324.6" y1="385" x2="82" y2="-21.6"/>
			<line class="st3" x1="-335.3" y1="385" x2="71.3" y2="-21.6"/>
			<line class="st3" x1="-346" y1="385" x2="60.6" y2="-21.6"/>
			<line class="st3" x1="-356.7" y1="385" x2="49.9" y2="-21.6"/>
			<line class="st3" x1="-367.3" y1="385" x2="39.2" y2="-21.6"/>
			<line class="st3" x1="-378" y1="385" x2="28.5" y2="-21.6"/>
			<line class="st3" x1="-388.7" y1="385" x2="17.8" y2="-21.6"/>
			<line class="st3" x1="-399.4" y1="385" x2="7.2" y2="-21.6"/>
		</g>
	</g>
</g>
</svg>
